<?xml version="1.0" standalone="no"?>
<svg xmlns="http://www.w3.org/2000/svg" xmlns:xlink="http://www.w3.org/1999/xlink" width="666pt" height="672pt" viewBox="0.00 0.00 666 672">
<g id="graph0" class="graph" transform="translate(4,668) scale(1)" data-name="G">

<polygon fill="#2e3e56" stroke="none" points="-4,4 -4,-668 662,-668 662,4 -4,4"/>
<g id="clust4" class="cluster" data-name="cluster_receiver">

<path fill="#3b4b63" stroke="#e8726d" stroke-dasharray="5,2" d="M11.66,-254.68C11.66,-254.68 84.66,-254.68 84.66,-254.68 90.66,-254.68 96.66,-260.68 96.66,-266.68 96.66,-266.68 96.66,-318.68 96.66,-318.68 96.66,-324.68 90.66,-330.68 84.66,-330.68 84.66,-330.68 11.66,-330.68 11.66,-330.68 5.66,-330.68 -0.34,-324.68 -0.34,-318.68 -0.34,-318.68 -0.34,-266.68 -0.34,-266.68 -0.34,-260.68 5.66,-254.68 11.66,-254.68"/>
<text text-anchor="middle" x="48.16" y="-314.08" font-family="Times,serif" font-size="14.00" fill="#f0f0f0">_receiver</text>
</g>
<g id="clust2" class="cluster" data-name="clusterProductPurchase">

<path fill="#445773" stroke="#445773" d="M376.24,-419.64C376.24,-419.64 646.24,-419.64 646.24,-419.64 652.24,-419.64 658.24,-425.64 658.24,-431.64 658.24,-431.64 658.24,-651.64 658.24,-651.64 658.24,-657.64 652.24,-663.64 646.24,-663.64 646.24,-663.64 376.24,-663.64 376.24,-663.64 370.24,-663.64 364.24,-657.64 364.24,-651.64 364.24,-651.64 364.24,-431.64 364.24,-431.64 364.24,-425.64 370.24,-419.64 376.24,-419.64"/>
<text text-anchor="middle" x="511.24" y="-647.04" font-family="Times,serif" font-size="14.00" fill="#f0f0f0">ProductPurchase</text>
</g>
<g id="clust3" class="cluster" data-name="clusterEtherSender">

<path fill="#445773" stroke="#445773" d="M117.11,-140.21C117.11,-140.21 387.11,-140.21 387.11,-140.21 393.11,-140.21 399.11,-146.21 399.11,-152.21 399.11,-152.21 399.11,-372.21 399.11,-372.21 399.11,-378.21 393.11,-384.21 387.11,-384.21 387.11,-384.21 117.11,-384.21 117.11,-384.21 111.11,-384.21 105.11,-378.21 105.11,-372.21 105.11,-372.21 105.11,-152.21 105.11,-152.21 105.11,-146.21 111.11,-140.21 117.11,-140.21"/>
<text text-anchor="middle" x="252.11" y="-367.61" font-family="Times,serif" font-size="14.00" fill="#f0f0f0">EtherSender</text>
</g>
<g id="clust1" class="cluster" data-name="clusterOwnable">

<path fill="#445773" stroke="#445773" d="M68.24,-419.64C68.24,-419.64 312.24,-419.64 312.24,-419.64 318.24,-419.64 324.24,-425.64 324.24,-431.64 324.24,-431.64 324.24,-599.64 324.24,-599.64 324.24,-605.64 318.24,-611.64 312.24,-611.64 312.24,-611.64 68.24,-611.64 68.24,-611.64 62.24,-611.64 56.24,-605.64 56.24,-599.64 56.24,-599.64 56.24,-431.64 56.24,-431.64 56.24,-425.64 62.24,-419.64 68.24,-419.64"/>
<text text-anchor="middle" x="190.24" y="-595.04" font-family="Times,serif" font-size="14.00" fill="#f0f0f0">Ownable</text>
</g>
<g id="clust5" class="cluster" data-name="cluster_01">

<polygon fill="#2e3e56" stroke="black" points="447.74,-0.14 447.74,-143.14 656.74,-143.14 656.74,-0.14 447.74,-0.14"/>
<text text-anchor="middle" x="552.24" y="-126.54" font-family="Times,serif" font-size="14.00">Legend</text>
</g>
<!-- Ownable.&lt;Constructor&gt; -->
<g id="node1" class="node" pointer-events="visible" data-name="Ownable.&lt;Constructor&gt;">

<ellipse fill="rgb(255, 151, 151)" stroke="rgb(255, 151, 151)" stroke-width="3" cx="221.48" cy="-445.28" rx="67.55" ry="18"/>
<text text-anchor="middle" x="221.48" y="-441.08" font-family="Times,serif" font-size="14.00">&lt;Constructor&gt;</text>
</g>
<!-- Ownable.onlyOwner -->
<g id="node2" class="node" pointer-events="visible" data-name="Ownable.onlyOwner">

<polygon fill="#edad56" stroke="#1bc6a6" stroke-width="3" points="312.42,-549.83 312.42,-564.74 277.89,-575.28 229.06,-575.28 194.53,-564.74 194.53,-549.83 229.06,-539.28 277.89,-539.28 312.42,-549.83"/>
<polygon fill="none" stroke="#1bc6a6" stroke-width="3" points="316.42,-546.86 316.42,-567.7 278.49,-579.28 228.46,-579.28 190.53,-567.7 190.53,-546.86 228.46,-535.28 278.49,-535.28 316.42,-546.86"/>
<text text-anchor="middle" x="253.48" y="-553.08" font-family="Times,serif" font-size="14.00">onlyOwner</text>
</g>
<!-- Ownable.transferOwnership -->
<g id="node3" class="node" pointer-events="visible" data-name="Ownable.transferOwnership">

<ellipse fill="rgb(255, 189, 185)" stroke="rgb(255, 189, 185)" stroke-width="3" cx="147.48" cy="-499.28" rx="82.81" ry="18"/>
<text text-anchor="middle" x="147.48" y="-495.08" font-family="Times,serif" font-size="14.00">transferOwnership</text>
</g>
<!-- ProductPurchase.addProduct -->
<g id="node4" class="node" pointer-events="visible" data-name="ProductPurchase.addProduct">

<ellipse fill="rgb(255, 189, 185)" stroke="rgb(255, 189, 185)" stroke-width="3" cx="507.48" cy="-445.28" rx="55.04" ry="18"/>
<text text-anchor="middle" x="507.48" y="-441.08" font-family="Times,serif" font-size="14.00">addProduct</text>
</g>
<!-- ProductPurchase.purchaseProduct -->
<g id="node5" class="node" pointer-events="visible" data-name="ProductPurchase.purchaseProduct">

<ellipse fill="rgb(255, 189, 185)" stroke="rgb(165, 42, 42)" stroke-width="3" cx="559.48" cy="-557.28" rx="75.29" ry="18"/>
<text text-anchor="middle" x="559.48" y="-553.08" font-family="Times,serif" font-size="14.00">purchaseProduct</text>
</g>
<!-- ProductPurchase.getProduct -->
<g id="node6" class="node" pointer-events="visible" data-name="ProductPurchase.getProduct">

<ellipse fill="rgb(255, 189, 185)" stroke="rgb(255, 189, 185)" stroke-width="3" cx="593.48" cy="-613.28" rx="52.75" ry="18"/>
<text text-anchor="middle" x="593.48" y="-609.08" font-family="Times,serif" font-size="14.00">getProduct</text>
</g>
<!-- ProductPurchase.&lt;Fallback&gt; -->
<g id="node7" class="node" pointer-events="visible" data-name="ProductPurchase.&lt;Fallback&gt;">

<ellipse fill="rgb(255, 189, 185)" stroke="rgb(165, 42, 42)" stroke-width="3" cx="595.48" cy="-501.28" rx="55.36" ry="18"/>
<text text-anchor="middle" x="595.48" y="-497.08" font-family="Times,serif" font-size="14.00">&lt;Fallback&gt;</text>
</g>
<!-- ProductPurchase.&lt;Receive Ether&gt; -->
<g id="node8" class="node" pointer-events="visible" data-name="ProductPurchase.&lt;Receive Ether&gt;">

<ellipse fill="rgb(255, 189, 185)" stroke="rgb(165, 42, 42)" stroke-width="3" cx="448.48" cy="-501.28" rx="76.21" ry="18"/>
<text text-anchor="middle" x="448.48" y="-497.08" font-family="Times,serif" font-size="14.00">&lt;Receive Ether&gt;</text>
</g>
<!-- EtherSender.&lt;Constructor&gt; -->
<g id="node9" class="node" pointer-events="visible" data-name="EtherSender.&lt;Constructor&gt;">

<ellipse fill="rgb(255, 151, 151)" stroke="rgb(255, 151, 151)" stroke-width="3" cx="292.35" cy="-285.85" rx="67.55" ry="18"/>
<text text-anchor="middle" x="292.35" y="-281.65" font-family="Times,serif" font-size="14.00">&lt;Constructor&gt;</text>
</g>
<!-- EtherSender.onlyOwner -->
<g id="node10" class="node" pointer-events="visible" data-name="EtherSender.onlyOwner">

<polygon fill="#edad56" stroke="#1bc6a6" stroke-width="3" points="315.29,-162.39 315.29,-177.31 280.76,-187.85 231.93,-187.85 197.4,-177.31 197.4,-162.39 231.93,-151.85 280.76,-151.85 315.29,-162.39"/>
<polygon fill="none" stroke="#1bc6a6" stroke-width="3" points="319.29,-159.43 319.29,-180.27 281.36,-191.85 231.33,-191.85 193.4,-180.27 193.4,-159.43 231.33,-147.85 281.36,-147.85 319.29,-159.43"/>
<text text-anchor="middle" x="256.35" y="-165.65" font-family="Times,serif" font-size="14.00">onlyOwner</text>
</g>
<!-- EtherSender.sendEther --><g id="edge1" class="edge" data-name="EtherSender.sendEther-&gt;_receiver.transfer" data-comment="EtherSender.sendEther">

<path fill="none" stroke="rgb(255, 255, 255)" stroke-width="2" d="M129.99,-318.95C117.4,-313.06 102.84,-306.25 89.53,-300.03"/>
<polygon fill="white" stroke="white" stroke-width="2" points="91.03,-296.87 80.49,-295.81 88.07,-303.21 91.03,-296.87"/>
</g>
<g id="node11" class="node" pointer-events="visible" data-name="EtherSender.sendEther">

<ellipse fill="rgb(255, 189, 185)" stroke="rgb(165, 42, 42)" stroke-width="3" cx="162.3" cy="-334.06" rx="49.8" ry="18"/>
<text text-anchor="middle" x="162.3" y="-329.86" font-family="Times,serif" font-size="14.00">sendEther</text>
</g>
<!-- _receiver.transfer -->
<g id="node14" class="node" pointer-events="visible" data-name="_receiver.transfer">

<ellipse fill="rgb(237, 173, 86)" stroke="rgb(237, 173, 86)" stroke-width="3" cx="48.46" cy="-280.83" rx="40.55" ry="18"/>
<text text-anchor="middle" x="48.46" y="-276.63" font-family="Times,serif" font-size="14.00">transfer</text>
</g>
<!-- EtherSender.sendEther&#45;&gt;_receiver.transfer -->

<!-- EtherSender.&lt;Fallback&gt; -->
<g id="node12" class="node" pointer-events="visible" data-name="EtherSender.&lt;Fallback&gt;">

<ellipse fill="rgb(255, 189, 185)" stroke="rgb(165, 42, 42)" stroke-width="3" cx="336.35" cy="-229.85" rx="55.36" ry="18"/>
<text text-anchor="middle" x="336.35" y="-225.65" font-family="Times,serif" font-size="14.00">&lt;Fallback&gt;</text>
</g><!-- key2 -->
<!-- EtherSender.&lt;Receive Ether&gt; -->
<g id="node13" class="node" pointer-events="visible" data-name="EtherSender.&lt;Receive Ether&gt;">

<ellipse fill="rgb(255, 189, 185)" stroke="rgb(165, 42, 42)" stroke-width="3" cx="189.35" cy="-229.85" rx="76.21" ry="18"/>
<text text-anchor="middle" x="189.35" y="-225.65" font-family="Times,serif" font-size="14.00">&lt;Receive Ether&gt;</text>
</g>
<!-- key&#45;&gt;key2 -->
<!-- key -->
<g id="edge2" class="edge" data-name="key-&gt;key2" data-comment="key">

<path fill="none" stroke="rgb(27, 198, 166)" stroke-width="2" d="M577.29,-97.14C577.29,-97.14 588.63,-91.81 597.84,-87.48"/>
<polygon fill="#1bc6a6" stroke="#1bc6a6" stroke-width="2" points="599.15,-90.74 606.72,-83.32 596.18,-84.4 599.15,-90.74"/>
</g>
<g id="node15" class="node" pointer-events="visible" data-name="key">

<polygon fill="#edad56" stroke="none" stroke-width="3" points="585.29,-111.14 455.29,-111.14 455.29,-23.14 585.29,-23.14 585.29,-111.14"/>
<text text-anchor="start" x="504.93" y="-92.54" font-family="Times,serif" font-size="14.00">Internal Call</text>
<text text-anchor="start" x="501.04" y="-72.54" font-family="Times,serif" font-size="14.00">External Call</text>
<text text-anchor="start" x="478.49" y="-52.54" font-family="Times,serif" font-size="14.00">Defined Contract</text>
<text text-anchor="start" x="464.89" y="-32.54" font-family="Times,serif" font-size="14.00">Undefined Contract</text>
</g>
<!-- key&#45;&gt;key2 -->
<g id="node16" class="node" pointer-events="visible" data-name="key2" data-comment="key-&gt;key2">

<polygon fill="#edad56" stroke="none" stroke-width="3" points="648.46,-96.03 594.46,-96.03 594.46,-8.03 648.46,-8.03 648.46,-96.03"/>
<text text-anchor="start" x="611.46" y="-77.43" font-family="Times,serif" font-size="14.00">   </text>
<text text-anchor="start" x="611.46" y="-57.43" font-family="Times,serif" font-size="14.00">   </text>
<polygon fill="#445773" stroke="none" points="609.46,-32.03 609.46,-52.03 634.46,-52.03 634.46,-32.03 609.46,-32.03"/>
<text text-anchor="start" x="611.46" y="-37.43" font-family="Times,serif" font-size="14.00">   </text>
<polygon fill="none" stroke="#e8726d" points="611.46,-14.03 611.46,-30.03 632.46,-30.03 632.46,-14.03 611.46,-14.03"/>
</g>

<g id="edge3" class="edge" data-name="key-&gt;key2">

<path fill="none" stroke="white" stroke-width="2" d="M577.29,-77.14C577.29,-77.14 588.63,-71.81 597.84,-67.48"/>
<polygon fill="white" stroke="white" stroke-width="2" points="599.15,-70.74 606.72,-63.32 596.18,-64.4 599.15,-70.74"/>
</g>
</g>
</svg>